<svg width="97" height="96" xmlns="http://www.w3.org/2000/svg" xmlns:xlink="http://www.w3.org/1999/xlink" overflow="hidden"><defs><clipPath id="clip0"><rect x="457" y="312" width="97" height="96"/></clipPath><clipPath id="clip1"><rect x="458" y="312" width="96" height="96"/></clipPath><clipPath id="clip2"><rect x="458" y="312" width="96" height="96"/></clipPath><clipPath id="clip3"><rect x="458" y="312" width="96" height="96"/></clipPath></defs><g clip-path="url(#clip0)" transform="translate(-457 -312)"><g clip-path="url(#clip1)"><g clip-path="url(#clip2)"><g clip-path="url(#clip3)"><path d="M504 406 521 406 522.8 395.8 505.8 395.8Z" fill="#FFFFFF" fill-rule="nonzero" fill-opacity="1"/><path d="M527.4 326.8C529 329.9 528.8 333.8 526.8 337.7 525.1 341.1 522.4 343.9 519.1 345.8 518.1 349.4 515.9 352.5 512.9 354.6L512.5 356.6C516.6 356.7 520.7 356.3 524.7 355.3 526.3 354.8 528.1 354.9 529.7 355.5L537 314 520 314 518.7 321.4C522.4 321.3 525.8 323.5 527.4 326.8Z" fill="#FFFFFF" fill-rule="nonzero" fill-opacity="1"/><path d="M516.1 380.2 523.2 380.2C523.9 380.2 524.7 380.3 525.4 380.6L527.2 370.3C522.4 371.3 517.5 371.8 512.6 371.8 512.5 371.8 512.3 371.8 512.2 371.8 514.6 373.9 516 376.9 516.1 380.2Z" fill="#FFFFFF" fill-rule="nonzero" fill-opacity="1"/><path d="M523.4 392.8C523.6 392.8 523.8 392.8 524 392.7 526.7 392 528.3 389.3 527.7 386.7 527.6 386.2 527.4 385.7 527.1 385.2 526.2 383.9 524.6 383.1 523 383.1L514.7 383.1C513.8 383 513.2 382.3 513.1 381.4L513.1 380.3C513.1 375.4 509.1 371.4 504.2 371.4L501 371.4C500.6 371.4 500.2 371.1 500 370.8 499.6 370.2 499.7 369.5 500.2 368.9 500.5 368.6 500.8 368.5 501.2 368.5L508.8 368.9C510 369 511.3 369 512.5 369 518.3 369 524.1 368.4 528.4 367.1 531 366.3 532.5 363.5 531.7 360.8 531.6 360.6 531.6 360.4 531.5 360.3 530.4 358 527.8 356.8 525.3 357.6 521.3 358.8 515.3 359.2 509.9 359L510.2 356.1C507.7 357.4 504.9 358 502.1 358 495.1 358 489.3 354.6 486.5 349.3 480.9 356.6 475 366.5 475 374.7 475 387.7 482.5 392.8 494.6 392.8L523.4 392.8Z" fill="#FFFFFF" fill-rule="nonzero" fill-opacity="1"/><path d="M489 347.8C491.5 353.3 497.7 356.3 504.4 355.3 511 354.4 515.9 349.5 517 343.8 521.2 342.2 528.1 333.9 525 328 522.2 322.6 516.9 324 515.2 324.7 513.4 325.4 511.9 326.6 510.7 328.2 507.8 325.8 503.9 324.7 500.1 325.3 496.4 325.8 493.1 327.9 491 331 489.5 329.9 487.7 329.1 485.8 329 484 328.9 478.5 329 477.3 335 476 341.3 484.4 347.2 489 347.8ZM516.6 329.3C519.5 328.3 520.5 329.9 521 330.4 521.8 331.7 521.9 333.2 521.3 334.6 520.3 336.6 518.8 338.4 517 339.7 516.5 336.7 515.4 333.9 513.7 331.4 514.5 330.6 515.5 329.9 516.6 329.3ZM510.1 340C510.9 339.9 511.7 340.5 511.8 341.3 511.9 342.1 511.3 342.9 510.5 343 509.7 343.1 508.9 342.5 508.8 341.7 508.8 341.7 508.8 341.7 508.8 341.7 508.7 340.9 509.3 340.1 510.1 340ZM499.8 343.8C499.9 342.3 501 341.1 502.5 340.7 504 340.6 505.4 341.5 505.9 342.9 506.4 344.1 506.8 345.4 507.1 346.7 507.5 348.7 506.3 350.7 504.3 351.1 502.3 351.5 500.3 350.3 499.9 348.3 499.9 348.1 499.8 347.9 499.8 347.7 499.7 346.5 499.7 345.1 499.8 343.8ZM494.9 342.2C495.7 342.1 496.5 342.7 496.6 343.5 496.7 344.3 496.1 345.1 495.3 345.2 494.5 345.3 493.7 344.7 493.6 343.9 493.5 343.1 494.1 342.3 494.9 342.2ZM481.7 336.1C482 335.4 482.5 333.6 485.6 333.8 486.8 334 487.9 334.4 488.9 335 487.9 337.8 487.5 340.9 487.8 343.9 485.8 343.1 484 341.8 482.5 340.3 481.6 339.1 481.3 337.5 481.7 336.1Z" fill="#FFFFFF" fill-rule="nonzero" fill-opacity="1"/></g></g></g></g></svg>